<?xml version="1.0" standalone="no"?>
<!DOCTYPE svg PUBLIC "-//W3C//DTD SVG 20010904//EN"
 "http://www.w3.org/TR/2001/REC-SVG-20010904/DTD/svg10.dtd">
<svg version="1.0" xmlns="http://www.w3.org/2000/svg"
 width="24.000000pt" height="24.000000pt" viewBox="0 0 24.000000 24.000000"
 preserveAspectRatio="xMidYMid meet">
<g transform="translate(0.000000,24.000000) scale(0.100000,-0.100000)"
fill="#000000" stroke="none">
<path d="M0 236 c0 -2 8 -10 18 -17 15 -13 16 -12 3 4 -13 16 -21 21 -21 13z"/>
<path d="M214 218 l-19 -23 23 19 c21 18 27 26 19 26 -2 0 -12 -10 -23 -22z"/>
<path d="M40 155 l-34 -35 37 -37 c43 -44 64 -37 22 7 l-29 30 27 28 c15 15
27 31 27 35 0 15 -18 5 -50 -28z"/>
<path d="M150 183 c0 -4 12 -20 27 -35 l27 -28 -29 -30 c-42 -44 -21 -51 22
-7 l37 37 -34 35 c-32 33 -50 43 -50 28z"/>
</g>
</svg>
