<?xml version="1.0" standalone="no"?>
<!DOCTYPE svg PUBLIC "-//W3C//DTD SVG 20010904//EN"
 "http://www.w3.org/TR/2001/REC-SVG-20010904/DTD/svg10.dtd">
<svg version="1.0" xmlns="http://www.w3.org/2000/svg"
 width="24.000000pt" height="24.000000pt" viewBox="0 0 24.000000 24.000000"
 preserveAspectRatio="xMidYMid meet">
<g transform="translate(0.000000,24.000000) scale(0.100000,-0.100000)"
fill="#000000" stroke="none">
<path d="M47 213 c-4 -3 -7 -23 -7 -44 0 -20 -6 -40 -12 -42 -10 -4 -10 -8 -1
-14 6 -4 13 -26 15 -48 2 -33 7 -41 26 -43 12 -2 22 1 22 7 0 6 -7 11 -15 11
-12 0 -15 16 -15 80 0 64 3 80 15 80 8 0 15 5 15 10 0 11 -33 14 -43 3z"/>
<path d="M150 211 c0 -6 7 -11 15 -11 12 0 15 -16 15 -80 0 -64 -3 -80 -15
-80 -8 0 -15 -5 -15 -11 0 -6 10 -9 23 -7 18 2 23 10 25 43 2 22 9 43 15 47 9
6 9 10 0 16 -6 4 -13 25 -15 47 -2 33 -7 41 -25 43 -13 2 -23 -1 -23 -7z"/>
</g>
</svg>
