<?xml version="1.0" standalone="no"?>
<!DOCTYPE svg PUBLIC "-//W3C//DTD SVG 20010904//EN"
 "http://www.w3.org/TR/2001/REC-SVG-20010904/DTD/svg10.dtd">
<svg version="1.0" xmlns="http://www.w3.org/2000/svg"
 width="24.000000pt" height="24.000000pt" viewBox="0 0 24.000000 24.000000"
 preserveAspectRatio="xMidYMid meet">
<g transform="translate(0.000000,24.000000) scale(0.100000,-0.100000)"
fill="#000000" stroke="none">
<path d="M56 204 c-21 -21 -20 -47 2 -67 24 -22 45 -21 65 1 22 24 21 45 -1
65 -23 21 -46 22 -66 1z m59 -34 c0 -18 -6 -26 -23 -28 -24 -4 -38 18 -28 44
3 9 15 14 28 12 17 -2 23 -10 23 -28z"/>
<path d="M150 211 c0 -5 7 -11 15 -15 8 -3 15 -15 15 -26 0 -11 -7 -23 -15
-26 -16 -7 -21 -24 -6 -24 16 0 41 31 41 50 0 19 -25 50 -41 50 -5 0 -9 -4 -9
-9z"/>
<path d="M26 84 c-17 -17 -22 -64 -7 -64 5 0 11 12 13 28 3 26 5 27 58 27 53
0 55 -1 58 -28 2 -15 8 -27 13 -27 16 0 10 46 -9 63 -24 22 -105 23 -126 1z"/>
<path d="M180 91 c0 -5 7 -11 15 -15 8 -3 15 -17 15 -31 0 -14 5 -25 10 -25
16 0 12 47 -6 64 -17 18 -34 21 -34 7z"/>
<path d="M75 41 c-3 -5 -2 -12 3 -15 5 -3 9 1 9 9 0 17 -3 19 -12 6z"/>
</g>
</svg>
