<?xml version="1.0" standalone="no"?>
<!DOCTYPE svg PUBLIC "-//W3C//DTD SVG 20010904//EN"
 "http://www.w3.org/TR/2001/REC-SVG-20010904/DTD/svg10.dtd">
<svg version="1.0" xmlns="http://www.w3.org/2000/svg"
 width="24.000000pt" height="24.000000pt" viewBox="0 0 24.000000 24.000000"
 preserveAspectRatio="xMidYMid meet">
<g transform="translate(0.000000,24.000000) scale(0.100000,-0.100000)"
fill="#000000" stroke="none">
<path d="M50 183 c0 -4 12 -20 27 -35 l27 -28 -29 -30 c-37 -39 -24 -52 15
-15 l30 29 30 -29 c16 -16 33 -25 37 -22 3 4 -6 21 -22 37 l-29 30 29 30 c37
39 24 52 -15 15 l-30 -29 -28 27 c-28 27 -42 33 -42 20z"/>
<path d="M223 45 c0 -8 4 -12 9 -9 5 3 6 10 3 15 -9 13 -12 11 -12 -6z"/>
</g>
</svg>
